PathFileType	4	(X/Y/Z)	SUBJ32_0_static_RCNL2025.trc
DataRate	CameraRate	NumFrames	NumMarkers	Units	OrigDataRate	OrigDataStartFrame	OrigNumFrames
100	100	4	25	mm	100	86	114
Frame#	Time	R_Shoulder			L_Shoulder			C7			J_Notch			R_Elbow			L_Elbow			R_Wrist			L_Wrist			R_Asis			L_Asis			Sacral			Thoracic			Sternum			R_Thigh_Lateral			R_Knee_Lateral			R_Shank_Lateral			R_Ankle_Lateral			R_Heel			R_Toe			L_Thigh_Lateral			L_Knee_Lateral			L_Shank_Lateral			L_Ankle_Lateral			L_Heel			L_Toe		
		X1	Y1	Z1	X2	Y2	Z2	X3	Y3	Z3	X4	Y4	Z4	X5	Y5	Z5	X6	Y6	Z6	X7	Y7	Z7	X8	Y8	Z8	X9	Y9	Z9	X10	Y10	Z10	X11	Y11	Z11	X12	Y12	Z12	X13	Y13	Z13	X14	Y14	Z14	X15	Y15	Z15	X16	Y16	Z16	X17	Y17	Z17	X18	Y18	Z18	X19	Y19	Z19	X20	Y20	Z20	X21	Y21	Z21	X22	Y22	Z22	X23	Y23	Z23	X24	Y24	Z24	X25	Y25	Z25
86	0.85000000	-250.392807	1369.119263	-56.495926	-278.172424	1365.864868	-426.897156	-303.229340	1436.755127	-229.584244	-162.245819	1356.427856	-245.793518	-277.109375	1036.540771	51.415813	-310.792236	1048.434692	-527.495728	-205.762268	799.845825	70.712509	-238.441238	803.707733	-570.699799	-152.438889	915.800476	-125.384277	-159.285446	906.841431	-376.905243	-352.973572	952.739990	-242.254440	-371.347534	1202.374756	-234.622330	-73.568115	1134.531372	-248.976013	-268.900665	554.546448	-42.698589	-272.868683	456.056519	-85.197693	-302.269531	300.888824	-12.177450	-311.823151	68.659370	-114.680779	-357.618958	56.943142	-171.381180	-177.961060	50.024006	-132.356979	-264.184509	567.598328	-470.311554	-270.370422	472.894409	-425.063110	-309.078644	254.529648	-460.749634	-324.097992	61.854763	-379.711334	-364.669617	51.350185	-325.646637	-185.024506	40.675552	-379.911163
87	0.86000000	-250.462967	1369.143677	-56.500454	-278.404297	1365.832397	-426.868469	-303.411224	1436.720459	-229.542587	-162.510223	1356.465820	-245.840668	-277.185181	1036.609497	51.413586	-310.946014	1048.393799	-527.517212	-205.792297	799.847931	70.839283	-238.421921	803.765442	-570.722229	-152.471039	915.801880	-125.344719	-159.272568	906.854675	-376.898285	-353.109253	952.712708	-242.299194	-371.495270	1202.357300	-234.632584	-73.580872	1134.584229	-249.024734	-268.876434	554.488464	-42.733063	-272.878113	456.044556	-85.205276	-302.292358	300.884766	-12.147102	-311.843109	68.662933	-114.675117	-357.653870	56.961021	-171.327850	-177.938293	49.997070	-132.407028	-264.204163	567.611877	-470.316681	-270.370880	472.885742	-425.030548	-309.080688	254.533829	-460.749084	-324.126434	61.875557	-379.690002	-364.682556	51.400959	-325.641235	-185.030502	40.669571	-379.906830
88	0.87000000	-250.532349	1369.164429	-56.525700	-278.583771	1365.812622	-426.831116	-303.557922	1436.710815	-229.564667	-162.716080	1356.456055	-245.739853	-277.208435	1036.606689	51.450581	-310.949371	1048.336182	-527.512695	-205.825294	799.935364	70.971224	-238.402069	803.800049	-570.797638	-152.565292	915.841003	-125.276772	-159.334106	906.865784	-376.845825	-353.133270	952.639893	-242.275528	-371.682159	1202.333496	-234.499100	-73.643417	1134.569702	-248.941376	-268.909088	554.536438	-42.684052	-272.804169	456.047363	-85.132362	-302.267120	300.868652	-12.182203	-311.873779	68.578400	-114.647850	-357.676453	56.934120	-171.303055	-177.978226	50.045879	-132.404755	-264.151367	567.642395	-470.307098	-270.391052	472.835724	-425.020081	-309.085175	254.536423	-460.740936	-324.069366	61.856888	-379.715149	-364.703644	51.389629	-325.618042	-184.988022	40.672783	-379.930023
89	0.88000000	-250.581970	1369.166260	-56.484470	-278.818756	1365.811890	-426.771973	-303.652710	1436.672363	-229.483734	-162.813385	1356.580078	-245.731674	-277.282288	1036.623901	51.513512	-311.050140	1048.399292	-527.542175	-205.895927	799.918030	71.126915	-238.400276	803.842072	-570.865173	-152.613113	915.869019	-125.278297	-159.323166	906.954346	-376.825043	-353.190186	952.635864	-242.230652	-371.824127	1202.347168	-234.375458	-73.770653	1134.596924	-248.963913	-268.923370	554.546509	-42.689423	-272.855194	455.939850	-85.093193	-302.301849	300.845001	-12.184846	-311.926239	68.583000	-114.628525	-357.661865	56.952530	-171.319275	-178.052261	50.039577	-132.353760	-264.095062	567.603821	-470.215851	-270.395264	472.831909	-425.018646	-309.080353	254.518295	-460.722198	-324.055359	61.863766	-379.730835	-364.727203	51.160072	-325.547974	-185.038818	40.683235	-379.930145
